<svg width="30" height="40" fill="none" xmlns="http://www.w3.org/2000/svg">
  <path
    d="M29.47 29.272v-.153s-.028-2.822-2.712-2.822h-.098c-.773 0-1.462.321-1.968.852 0 0-.885.88-1.981 2.347-.717 1.075-2.91 3.115-5.973 3.743-3.752.783-7.449-.768-11.004-4.581a3.32 3.32 0 00-4.666-.182 3.272 3.272 0 00-.183 4.638c3.177 3.422 6.662 5.6 10.358 6.467 1.194.28 2.403.419 3.612.419 1.981 0 3.949-.377 5.846-1.103 2.248-.88 4.399-2.277 6.029-3.968 1.265-1.299 2.754-3.296 2.754-5.461-.014-.07-.014-.126-.014-.196z"
    fill="#FFD947" />
  <path
    d="M3.05 13.74c-.647 0-1.012.013-1.518-.308A3.27 3.27 0 010 10.652c0-3.492 3.879-7.71 8.826-9.596a15.752 15.752 0 019.486-.587c3.682.922 7.153 3.157 10.315 6.635a3.262 3.262 0 01-.239 4.638 3.31 3.31 0 01-4.666-.238c-3.625-3.98-7.392-5.573-11.186-4.735-3.064.685-5.158 2.738-5.79 3.8-.099.111-.281.32-.31.405-1.053 1.243-2.08 2.654-3.386 2.765z"
    fill="#13F0C0" />
  <path
    d="M29.47 29.119s0-.238-.07-.573v-.028c-.73-4.107-6.226-7.347-13.056-11.37-2.417-1.425-4.904-2.892-6.816-4.219-1.728-1.215-2.473-1.97-2.782-2.347-1.04-1.159-1.139-1.285-1.518-1.704-.492-.53-1.124-1.061-2.333-1.061h-.084c-1.504 0-2.74 1.257-2.797 2.85V10.96s0 .181.056.46c.548 3.898 5.355 6.929 12.916 11.399 2.445 1.439 4.975 2.933 6.914 4.302 1.729 1.215 2.487 1.984 2.81 2.389.07.084.145.153.2.223.888.966.953 1.076 1.319 1.467.482.478 1.138 1.061 2.332 1.061h.085c1.56 0 2.81-1.34 2.81-2.989.014-.056.014-.098.014-.153z"
    fill="#5EC1FF" />
  <path
    d="M2.81 13.767c.774 0 1.462-.32 1.968-.852 0 0 .865-.873 1.961-2.34-1.04-1.16-1.132-1.291-1.511-1.71-.492-.531-1.124-1.062-2.333-1.062h-.084C1.265 7.803 0 9.143 0 10.778v.154s.028 2.807 2.684 2.821l.127.014z"
    fill="#0F71F0" />
  <path
    d="M26.778 26.294c2.678 0 2.706 2.845 2.706 2.845v.155c0 1.662-1.262 3.014-2.805 3.014h-.084c-1.206 0-1.837-.55-2.328-1.07-.392-.423-.512-.551-1.564-1.735 1.094-1.478 2.013-2.35 2.013-2.35a2.7 2.7 0 011.963-.86h.099z"
    fill="#F7578C" />
</svg>