<svg width="13" height="14" viewBox="0 0 13 14" fill="none" xmlns="http://www.w3.org/2000/svg">
<path fill-rule="evenodd" clip-rule="evenodd" d="M12.3948 11.2801C11.4907 10.0007 10.5943 9.16037 9.48875 8.05127C9.79025 7.40388 10.2331 6.44014 10.2331 5.67894C10.2331 2.88761 7.97005 0.625 5.17906 0.625C2.38766 0.625 0.125 2.88761 0.125 5.67894C0.125 8.46987 2.38766 10.7333 5.17906 10.7333C5.93987 10.7333 6.90443 10.29 7.55142 9.98855C8.66055 11.0936 9.50085 11.9908 10.7803 12.8945C11.3252 13.2795 12.1721 13.6158 12.6439 13.144C13.1157 12.6726 12.7798 11.8245 12.3948 11.2801ZM2.37152 5.67894C2.37152 4.1291 3.62878 2.87106 5.17946 2.87106C6.73015 2.87106 7.987 4.1287 7.987 5.67894C7.987 7.22959 6.73015 8.48682 5.17946 8.48682C3.62878 8.48682 2.37152 7.23 2.37152 5.67894Z" fill="#8090B2"/>
</svg>
