<svg width="30" height="42" viewBox="0 0 30 42" fill="none" xmlns="http://www.w3.org/2000/svg">
  <path d="M29.7311 29.0955C29.8549 29.5759 29.8549 29.9465 29.8549 29.9465V29.9465C29.8549 30.0014 29.8549 30.0563 29.8686 30.1523C29.8686 32.0052 28.4658 33.5013 26.7191 33.5013H26.6228C25.2749 33.5013 24.5597 32.8974 24.0096 32.3072C23.5832 31.8268 23.5145 31.717 22.3454 30.4131L22.3042 30.3719C22.3042 30.3719 21.1213 29.2465 19.7185 28.2583C17.848 26.9407 15.4274 25.5132 13.0893 24.127L12.9884 24.0672C5.82944 19.8272 0.202141 16.4944 0.202141 11.8633L0.202148 11.843C0.270916 10.0588 1.64628 8.63135 3.33797 8.63135H3.43424C4.76834 8.63135 5.49728 9.23525 6.03367 9.82543C6.47378 10.2921 6.5563 10.4156 7.72536 11.7195C8.11046 12.1175 8.89441 12.845 10.2835 13.8057C12.1265 15.0822 14.5059 16.4958 16.8027 17.8546C23.4595 21.7937 28.8371 24.978 29.7311 29.0955Z" fill="#52BCFF" />
  <path d="M28.9127 8.12546C25.7685 4.63869 22.3085 2.39227 18.6289 1.45511C15.4709 0.655773 12.1894 0.862498 9.11387 2.04773C4.12983 3.97716 0.230469 8.30462 0.230469 11.9016C0.230469 12.0119 0.230469 12.1222 0.244199 12.2324C0.257929 12.508 0.42269 15.3609 3.23737 15.3884H3.37467C4.22594 15.3884 4.99483 15.0163 5.57149 14.4237C5.57149 14.4237 6.54633 13.4314 7.76832 11.7776C8.50974 10.744 10.4732 8.97993 13.1643 8.42866C16.6654 7.71201 20.1392 9.25556 23.5168 13.0042C24.8623 14.5064 27.169 14.6166 28.6519 13.266C30.1347 11.9154 30.272 9.62767 28.9127 8.12546Z" fill="#13F0C0" />
  <path d="M29.8208 30.3137C29.8208 30.2863 29.8208 30.2726 29.8208 30.2452C29.8208 30.1903 29.8208 30.108 29.8208 30.0395C29.8208 30.0395 29.862 26.8857 26.8507 26.8857H26.7407C25.8882 26.8857 25.1044 27.256 24.5406 27.8456C24.5406 27.8456 23.5643 28.8191 22.3406 30.4646C21.5155 31.5204 19.453 33.2481 16.7716 33.7554C13.3203 34.4136 9.88268 32.9327 6.56883 29.3402C5.20754 27.8593 2.89747 27.777 1.42618 29.1345C-0.0588654 30.492 -0.141368 32.7956 1.21992 34.2628C4.38252 37.677 7.86137 39.8572 11.5602 40.7348C12.7565 41.0227 13.9803 41.1599 15.1903 41.1599C17.1704 41.1599 19.1642 40.7896 21.0618 40.0492C26.0257 38.1158 29.8758 33.92 29.8758 30.4508C29.8483 30.4234 29.8208 30.3549 29.8208 30.3137Z" fill="#FFD947" />
  <path d="M3.33341 15.3884C4.23419 15.3884 4.96822 15.0489 5.55011 14.4551C5.55011 14.4551 6.53944 13.429 7.77248 11.7718C6.59486 10.4599 6.50606 10.3023 6.06272 9.83279C5.5224 9.23897 4.78812 8.63135 3.44425 8.63135C3.41654 8.63135 3.37498 8.63135 3.34727 8.63135C1.60162 8.63135 0.188477 10.1366 0.188477 11.9871C0.188477 12.0423 0.188477 12.0976 0.188477 12.1528C0.188477 12.1528 0.216186 15.3608 3.20872 15.3884H3.33341Z" fill="#0C6EED" />
  <path d="M26.9027 26.7803C29.9226 26.7803 29.9483 29.971 29.9483 29.971C29.9483 30.026 29.9483 30.081 29.9483 30.1498C29.9483 32.0065 28.5417 33.5056 26.7905 33.5056C26.7629 33.5056 26.7215 33.5056 26.6939 33.5056C25.3426 33.5056 24.6255 32.9004 24.0739 32.3091C23.6327 31.8414 23.5364 31.7515 22.3643 30.4312C23.5915 28.7808 24.5841 27.743 24.5841 27.743C25.1495 27.1516 25.9355 26.7803 26.7905 26.7803H26.9027Z" fill="#F7578C" />
</svg>
